<?xml version="1.0" encoding="UTF-8" standalone="no"?>
<!-- Created with Inkscape (http://www.inkscape.org/) -->

<svg
   xmlns:dc="http://purl.org/dc/elements/1.1/"
   xmlns:cc="http://creativecommons.org/ns#"
   xmlns:rdf="http://www.w3.org/1999/02/22-rdf-syntax-ns#"
   xmlns:svg="http://www.w3.org/2000/svg"
   xmlns="http://www.w3.org/2000/svg"
   xmlns:sodipodi="http://sodipodi.sourceforge.net/DTD/sodipodi-0.dtd"
   xmlns:inkscape="http://www.inkscape.org/namespaces/inkscape"
   width="210mm"
   height="297mm"
   viewBox="0 0 210 297"
   version="1.1"
   id="svg4840"
   sodipodi:docname="lightning.svg"
   inkscape:version="0.92.2 2405546, 2018-03-11">
  <defs
     id="defs4834" />
  <sodipodi:namedview
     id="base"
     pagecolor="#ffffff"
     bordercolor="#666666"
     borderopacity="1.0"
     inkscape:pageopacity="0.0"
     inkscape:pageshadow="2"
     inkscape:zoom="0.35"
     inkscape:cx="548.05695"
     inkscape:cy="674.28571"
     inkscape:document-units="mm"
     inkscape:current-layer="layer1"
     showgrid="false"
     inkscape:window-width="679"
     inkscape:window-height="725"
     inkscape:window-x="683"
     inkscape:window-y="20"
     inkscape:window-maximized="0" />
  <metadata
     id="metadata4837">
    <rdf:RDF>
      <cc:Work
         rdf:about="">
        <dc:format>image/svg+xml</dc:format>
        <dc:type
           rdf:resource="http://purl.org/dc/dcmitype/StillImage" />
        <dc:title></dc:title>
      </cc:Work>
    </rdf:RDF>
  </metadata>
  <g
     inkscape:label="Layer 1"
     inkscape:groupmode="layer"
     id="layer1">
    <path
       d="m 177.29138,67.601324 c -8.70188,0 -16.51376,3.514706 -21.79843,9.102936 -1.20158,1.25306 -2.27189,2.620447 -3.19946,4.073094 -1.3198,2.067872 -2.29677,4.335007 -2.9752,6.710494 -0.98985,3.303979 -5.48388,2.272949 -4.97978,-0.432758 0.96515,-3.833784 2.73259,-7.416795 5.098,-10.567048 v -0.01152 c 0.9528,-1.275668 2.03546,-2.472211 3.15588,-3.594475 v 0.01615 c 4.24506,-4.158514 9.71024,-7.240301 15.87873,-8.761252 v -0.01165 l 1.57564,-0.342331 0.14122,-0.0323 1.48743,-0.250289 0.25584,-0.06459 1.43802,-0.161476 0.32288,-0.0323 1.46978,-0.113038 0.2929,-0.01152 c 0.60344,-0.0323 1.18924,-0.0323 1.79268,-0.0323 l -1.28276,0.01615 V 62.24239 C 175.96451,30.079748 147.48098,4.0065595 112.33721,4.0065595 c -24.138949,0 -45.177779,12.3160035 -55.95251,30.4765015 l 0.310542,0.0323 c 0.704011,0.09689 1.369205,0.227682 2.053985,0.342331 l 1.071014,0.209921 1.046313,0.227682 1.226286,0.284199 0.778118,0.21638 1.363913,0.369782 0.317598,0.113038 c 1.730917,0.511882 3.398666,1.122263 5.029537,1.794492 v 0 c 12.007193,5.058424 21.474648,14.338178 26.049665,25.776716 v -0.01152 c 0.559328,1.435528 1.063958,2.916596 1.469779,4.414777 v 0 c 0.243492,0.854213 0.455226,1.720375 0.652843,2.59768 l 0.07058,0.392388 c 0.141155,0.718572 0.268196,1.446832 0.379354,2.170411 l 0.08823,0.671743 c 0.08821,0.683048 0.141155,1.36125 0.204675,2.039293 l 0.07058,0.671743 c 0.07058,0.894581 0.08821,1.783028 0.08821,2.6831 v 0.570013 l -0.07058,1.32734 c -0.07058,0.581317 -0.08821,1.167478 -0.123519,1.748795 -0.47287,3.395374 -5.539812,2.540839 -4.911143,-0.432758 0.08821,-1.059288 0.123519,-2.124874 0.123519,-3.212906 0,-2.90513 -0.335244,-5.71935 -0.94574,-8.453638 -0.361712,-1.595391 -0.827524,-3.155904 -1.40626,-4.682507 -5.987977,-16.18963 -22.70093,-27.844708 -42.426488,-27.844708 -24.742569,0 -44.7919015,18.342805 -44.7919015,40.980896 0,22.632446 20.0493325,40.986716 44.7919015,40.986716 h 21.593042 v 0 h 89.054647 0.0706 17.55318 c 15.95972,0 28.88195,-11.83174 28.88195,-26.431998 0,-14.58879 -12.92223,-26.420524 -28.88195,-26.420524 z m -28.93789,68.865536 -14.42853,-0.47797 -10.70009,25.93641 19.52653,0.23899 -16.31455,25.19007 27.01446,-30.824 h -21.66767 z m -71.358365,30.53915 h 32.685195 l -40.764566,46.52359 24.624349,-38.03006 -29.460855,-0.36495 16.13404,-39.14667 21.798422,0.73471 -25.016585,30.2829"
       style="fill:#ffffff;fill-opacity:1;fill-rule:nonzero;stroke:none;stroke-width:0.59547001"
       id="path4786"
       inkscape:connector-curvature="0" />
  </g>
</svg>
