<?xml version="1.0" encoding="UTF-8" standalone="no"?>
<!-- Created with Inkscape (http://www.inkscape.org/) -->

<svg
   xmlns:dc="http://purl.org/dc/elements/1.1/"
   xmlns:cc="http://creativecommons.org/ns#"
   xmlns:rdf="http://www.w3.org/1999/02/22-rdf-syntax-ns#"
   xmlns:svg="http://www.w3.org/2000/svg"
   xmlns="http://www.w3.org/2000/svg"
   xmlns:sodipodi="http://sodipodi.sourceforge.net/DTD/sodipodi-0.dtd"
   xmlns:inkscape="http://www.inkscape.org/namespaces/inkscape"
   width="201.94533mm"
   height="209.52304mm"
   viewBox="0 0 201.94533 209.52304"
   version="1.1"
   id="svg4840"
   sodipodi:docname="rain.svg"
   inkscape:version="0.92.2 2405546, 2018-03-11">
  <defs
     id="defs4834" />
  <sodipodi:namedview
     id="base"
     pagecolor="#ffffff"
     bordercolor="#666666"
     borderopacity="1.0"
     inkscape:pageopacity="0.0"
     inkscape:pageshadow="2"
     inkscape:zoom="0.175"
     inkscape:cx="396.50993"
     inkscape:cy="955.50542"
     inkscape:document-units="mm"
     inkscape:current-layer="layer1"
     showgrid="false"
     inkscape:window-width="679"
     inkscape:window-height="694"
     inkscape:window-x="683"
     inkscape:window-y="51"
     inkscape:window-maximized="0"
     inkscape:pagecheckerboard="true" />
  <metadata
     id="metadata4837">
    <rdf:RDF>
      <cc:Work
         rdf:about="">
        <dc:format>image/svg+xml</dc:format>
        <dc:type
           rdf:resource="http://purl.org/dc/dcmitype/StillImage" />
        <dc:title></dc:title>
      </cc:Work>
    </rdf:RDF>
  </metadata>
  <g
     inkscape:label="Layer 1"
     inkscape:groupmode="layer"
     id="layer1"
     transform="translate(-4.1038095,-4.0065595)">
    <path
       d="m 125.10798,177.4135 c -2.24719,-1.02735 -5.11345,-0.40008 -6.42838,1.4702 l -16.29395,23.56878 c -1.301,1.87603 -0.54961,4.2748 1.72535,5.3375 2.24719,1.09155 5.09274,0.46429 6.39374,-1.43395 l 16.32172,-23.56882 c 1.2874,-1.85858 0.54349,-4.25139 -1.71848,-5.3724 z m -21.85966,0 c -2.26114,-1.02735 -5.113591,-0.40008 -6.414558,1.4702 l -16.321747,23.56878 c -1.273143,1.87603 -0.507831,4.2748 1.732377,5.3375 2.247175,1.09155 5.092685,0.46429 6.386769,-1.43395 l 16.328709,-23.56882 c 1.28063,-1.85858 0.5418,-4.25139 -1.71155,-5.3724 z m -21.866659,0 c -2.233281,-1.02735 -5.113542,-0.40008 -6.414571,1.4702 l -16.300827,23.56878 c -1.300997,1.87603 -0.528722,4.2748 1.725362,5.3375 2.247224,1.09155 5.113593,0.46429 6.414622,-1.43395 l 16.300828,-23.56882 c 1.280105,-1.85858 0.521756,-4.25139 -1.725414,-5.3724 z m 79.271019,-36.00377 c -2.21935,-1.07508 -5.10667,-0.40665 -6.37981,1.45208 l -16.34261,23.59202 c -1.28061,1.86449 -0.51462,4.26901 1.71151,5.30852 2.26111,1.12117 5.14827,0.45935 6.42855,-1.40597 l 16.31458,-23.58051 c 1.28061,-1.88179 0.52141,-4.29207 -1.73222,-5.36648 z m -42.8498,30.35262 c 2.25415,1.12117 5.12059,0.45935 6.38677,-1.40597 l 16.32868,-23.58051 c 1.30778,-1.88179 0.5282,-4.29207 -1.7115,-5.36664 -2.25417,-1.07507 -5.11347,-0.40666 -6.4007,1.45209 l -16.32173,23.59219 c -1.31457,1.86433 -0.5282,4.26883 1.71848,5.30834 z m -0.8628,-30.35262 c -2.21934,-1.07508 -5.10666,-0.40665 -6.40069,1.45208 l -16.314786,23.59202 c -1.300992,1.86449 -0.535681,4.26901 1.732385,5.30852 2.219368,1.12117 5.092731,0.45935 6.386771,-1.40597 l 16.30782,-23.58051 c 1.30778,-1.88179 0.55029,-4.29207 -1.7115,-5.36648 z m -21.831881,0 c -2.261066,-1.07508 -5.148342,-0.40665 -6.428515,1.45208 l -16.307826,23.59218 c -1.287068,1.86433 -0.50783,4.26885 1.71847,5.30853 2.247189,1.12118 5.106592,0.45934 6.41457,-1.40598 l 16.293877,-23.58049 c 1.294031,-1.88181 0.542655,-4.29225 -1.690614,-5.36666 z m -20.148192,5.36663 c 1.300995,-1.88178 0.514794,-4.29222 -1.718417,-5.36663 -2.247242,-1.07508 -5.113593,-0.40665 -6.414639,1.45208 l -16.31472,23.59202 c -1.300995,1.86449 -0.521756,4.26901 1.711453,5.30852 2.261151,1.12117 5.141396,0.45935 6.407625,-1.40597 z M 174.81059,71.161983 c -8.40042,0 -15.90203,3.659037 -21.00682,9.304405 -1.15664,1.300626 -2.18096,2.671714 -3.06176,4.15278 -1.27042,2.090879 -2.2409,4.402369 -2.88206,6.841781 -0.96471,3.357094 -5.26666,2.323179 -4.78736,-0.436284 0.94603,-3.949455 2.62441,-7.538684 4.91321,-10.779547 l -0.0122,-0.04938 c 0.93415,-1.24794 1.95931,-2.480075 3.04988,-3.641583 l 0.017,0.04938 c 4.06858,-4.23987 9.33524,-7.411089 15.27311,-8.932822 h 0.0339 l 1.5048,-0.372076 0.13588,-0.03294 1.44366,-0.273297 0.22759,-0.03294 1.38933,-0.197562 0.31759,-0.01646 1.42668,-0.115251 h 0.25816 c 0.56897,-0.03294 1.15663,-0.09878 1.74939,-0.09878 l -1.23477,0.04938 v -0.877511 c 0,-32.791912 -27.39988,-59.3925227 -61.23493,-59.3925227 -23.247687,0 -43.469589,12.5684987 -53.847168,31.1018117 l 0.305546,0.02304 c 0.658989,0.08725 1.31815,0.249752 1.953277,0.342609 l 1.042494,0.226539 1.000543,0.226539 1.186352,0.284656 0.754951,0.191635 1.300148,0.423938 0.317604,0.08725 c 1.665648,0.540169 3.265465,1.132532 4.835288,1.841123 11.563931,5.122619 20.689258,14.612899 25.069163,26.263699 h 0.03057 c 0.563025,1.452091 1.030442,2.973823 1.419888,4.501315 0.221646,0.882448 0.431398,1.742344 0.605149,2.642573 l 0.07137,0.413236 c 0.149465,0.755679 0.257646,1.45209 0.365503,2.195423 l 0.101895,0.661837 c 0.07127,0.707934 0.13757,1.405991 0.185818,2.096639 l 0.05436,0.69641 c 0.05436,0.893975 0.101895,1.823674 0.101895,2.747283 l -0.02379,0.57458 -0.04758,1.37142 c -0.01873,0.586102 -0.07815,1.150804 -0.09516,1.730651 -0.449407,3.467402 -5.338564,2.619526 -4.751386,-0.400064 0.08322,-1.080013 0.144373,-2.160519 0.144373,-3.275599 0,-2.973822 -0.317608,-5.831245 -0.904758,-8.630716 -0.342859,-1.631518 -0.816208,-3.188483 -1.349514,-4.768165 -5.776126,-16.518083 -21.875757,-28.4244 -40.851388,-28.4244 -23.804923,0 -43.0981085,18.719122 -43.0981085,41.823324 0,23.06945 19.2931855,41.78282 43.0981085,41.78282 h 20.791114 0.03056 85.710963 0.0509 16.91447 c 15.35074,0 27.78933,-12.09813 27.78933,-26.978253 0,-14.885899 -12.43859,-26.93166 -27.78933,-26.93166 z M 48.248362,172.49417 v 0"
       style="fill:#ffffff;fill-opacity:1;fill-rule:nonzero;stroke:none;stroke-width:0.58991206"
       id="path4782"
       inkscape:connector-curvature="0"
       sodipodi:nodetypes="ccccccccccccccccccccccccccccccccccccccccccccccccccccccccsccccccccccccccccccccssccccccccccccccccccccccccsccsssccccssscc" />
  </g>
</svg>
