<?xml version="1.0" encoding="UTF-8" standalone="no"?>
<!-- Created with Inkscape (http://www.inkscape.org/) -->

<svg
   xmlns:dc="http://purl.org/dc/elements/1.1/"
   xmlns:cc="http://creativecommons.org/ns#"
   xmlns:rdf="http://www.w3.org/1999/02/22-rdf-syntax-ns#"
   xmlns:svg="http://www.w3.org/2000/svg"
   xmlns="http://www.w3.org/2000/svg"
   xmlns:sodipodi="http://sodipodi.sourceforge.net/DTD/sodipodi-0.dtd"
   xmlns:inkscape="http://www.inkscape.org/namespaces/inkscape"
   width="201.94533mm"
   height="209.52304mm"
   viewBox="0 0 201.94533 209.52304"
   version="1.1"
   id="svg4840"
   sodipodi:docname="snow.svg"
   inkscape:version="0.92.2 2405546, 2018-03-11">
  <defs
     id="defs4834" />
  <sodipodi:namedview
     id="base"
     pagecolor="#ffffff"
     bordercolor="#666666"
     borderopacity="1.0"
     inkscape:pageopacity="0.0"
     inkscape:pageshadow="2"
     inkscape:zoom="0.35"
     inkscape:cx="272.3074"
     inkscape:cy="358.80703"
     inkscape:document-units="mm"
     inkscape:current-layer="layer1"
     showgrid="false"
     inkscape:window-width="679"
     inkscape:window-height="725"
     inkscape:window-x="683"
     inkscape:window-y="20"
     inkscape:window-maximized="0" />
  <metadata
     id="metadata4837">
    <rdf:RDF>
      <cc:Work
         rdf:about="">
        <dc:format>image/svg+xml</dc:format>
        <dc:type
           rdf:resource="http://purl.org/dc/dcmitype/StillImage" />
        <dc:title></dc:title>
      </cc:Work>
    </rdf:RDF>
  </metadata>
  <g
     inkscape:label="Layer 1"
     inkscape:groupmode="layer"
     id="layer1"
     transform="translate(-4.1038095,-4.0065595)">
    <path
       d="m 93.404439,197.09952 c 0.867595,0.24529 1.699812,0.1125 2.498547,-0.36428 0.79324,-0.46207 1.312042,-1.19062 1.524521,-2.11469 0.244343,-0.90693 0.141639,-1.81068 -0.311647,-2.65212 -0.49401,-0.85203 -1.149147,-1.38157 -2.023834,-1.59837 -0.849917,-0.28426 -1.698044,-0.15174 -2.485981,0.32266 -0.786168,0.50369 -1.28725,1.19046 -1.54222,2.11733 l -0.05303,1.52643 -4.228816,2.57676 v -5.18738 l 1.186334,-0.8138 c 0.617949,-0.66109 0.949064,-1.48745 0.949064,-2.46571 0,-0.94535 -0.331115,-1.78482 -0.949064,-2.45315 -0.649833,-0.70007 -1.418281,-1.01731 -2.34875,-1.01731 -0.906573,0 -1.687438,0.34311 -2.329817,1.01731 -0.630344,0.6684 -0.961459,1.50789 -0.961459,2.45315 0,0.97833 0.338186,1.80469 0.961459,2.46571 l 1.218199,0.8138 v 5.14889 l -4.25395,-2.57741 -0.07093,-1.48746 c -0.217782,-0.91892 -0.724188,-1.61356 -1.529824,-2.11733 -0.786169,-0.47538 -1.636064,-0.60674 -2.479782,-0.32266 -0.867617,0.2168 -1.542221,0.7589 -2.017637,1.59837 -0.469217,0.88053 -0.593178,1.74511 -0.34351,2.66467 0.237271,0.91164 0.74898,1.62687 1.549313,2.10214 0.756051,0.49059 1.593572,0.60957 2.504745,0.36428 l 1.267782,-0.70006 4.210031,2.57213 -4.222619,2.59 -1.255365,-0.65378 c -0.862312,-0.25784 -1.724604,-0.14618 -2.504745,0.3358 -0.805657,0.49057 -1.312063,1.19851 -1.549313,2.11469 -0.230178,0.89363 -0.12396,1.80526 0.34349,2.64423 0.462146,0.85447 1.117283,1.36978 2.017657,1.63961 0.85522,0.24548 1.69272,0.13119 2.479783,-0.35602 0.805636,-0.48347 1.312041,-1.18989 1.529824,-2.12267 l 0.07093,-1.50581 4.21642,-2.57148 v 5.17459 l -1.168614,0.80013 c -0.637437,0.67271 -0.961459,1.51218 -0.961459,2.46578 0,0.97064 0.324022,1.79701 0.961459,2.4789 0.642741,0.67457 1.430678,1.03809 2.31742,1.03809 0.887084,0 1.685648,-0.35227 2.34856,-1.03809 0.630344,-0.68209 0.949063,-1.50844 0.949063,-2.4789 0,-0.95192 -0.331093,-1.79139 -0.949063,-2.45305 l -1.223502,-0.82636 v -5.14898 l 4.266345,2.5847 0.05304,1.48014 c 0.256738,0.93204 0.761376,1.63943 1.561709,2.12262 0.768448,0.49095 1.618364,0.6015 2.467386,0.3298 0.906573,-0.23236 1.549313,-0.7589 2.023835,-1.61524 0.456821,-0.85204 0.55599,-1.73799 0.311647,-2.6442 -0.212564,-0.94459 -0.731281,-1.62423 -1.524521,-2.1147 -0.800332,-0.4825 -1.63076,-0.59362 -2.498568,-0.34835 l -1.280157,0.72051 -4.216421,-2.60587 4.241383,-2.59789 z m 50.858411,0 c 0.87468,0.24529 1.7122,0.1125 2.50474,-0.36428 0.80564,-0.46207 1.31204,-1.19062 1.53692,-2.11469 0.24434,-0.90693 0.12396,-1.81068 -0.31872,-2.65212 -0.49931,-0.85203 -1.14915,-1.38157 -2.01127,-1.59837 -0.87471,-0.28426 -1.71221,-0.15174 -2.49235,0.32266 -0.81273,0.50369 -1.30497,1.19046 -1.56171,2.11733 l -0.0353,1.52643 -4.24139,2.58998 V 191.726 l 1.18101,-0.8138 c 0.63037,-0.66109 0.97386,-1.48746 0.97386,-2.46571 0,-0.94535 -0.34349,-1.78484 -0.96853,-2.45315 -0.64983,-0.70007 -1.41121,-1.01731 -2.34858,-1.01731 -0.90481,0 -1.67325,0.3431 -2.33619,1.01731 -0.63034,0.66839 -0.94373,1.50786 -0.94373,2.45315 0,0.97832 0.31162,1.80469 0.94373,2.46571 l 1.23769,0.8138 v 5.14889 l -4.25998,-2.57742 -0.0709,-1.48745 c -0.22488,-0.91894 -0.73126,-1.61356 -1.52452,-2.11733 -0.80564,-0.4754 -1.65553,-0.60674 -2.49855,-0.32268 -0.86229,0.21681 -1.53692,0.75892 -2.01144,1.59838 -0.45682,0.88052 -0.57546,1.74511 -0.33111,2.66468 0.22487,0.91161 0.73658,1.62686 1.54931,2.10214 0.74368,0.49057 1.59357,0.60957 2.48615,0.36427 l 1.26778,-0.70005 4.21625,2.57213 -4.21625,2.59 -1.26778,-0.65378 c -0.84989,-0.25784 -1.71751,-0.14618 -2.48615,0.33578 -0.81273,0.49058 -1.32444,1.19851 -1.54931,2.1147 -0.24435,0.89363 -0.12396,1.80527 0.33111,2.6441 0.46213,0.85447 1.11726,1.36978 2.01144,1.63961 0.85522,0.24548 1.69274,0.13119 2.49855,-0.35602 0.79326,-0.48347 1.29964,-1.18989 1.52452,-2.12254 l 0.0709,-1.50581 4.21003,-2.57147 v 5.18719 l -1.14914,0.787 c -0.64274,0.67271 -0.96144,1.51407 -0.96144,2.4658 0,0.97064 0.3187,1.79699 0.96144,2.4789 0.63744,0.67457 1.41121,1.03809 2.29865,1.03809 0.88709,0 1.69982,-0.35229 2.34875,-1.03809 0.63744,-0.68209 0.96854,-1.50844 0.96854,-2.4789 0,-0.95192 -0.34349,-1.79141 -0.96854,-2.45323 l -1.2235,-0.82637 v -5.14886 l 4.26618,2.5847 0.053,1.48014 c 0.25674,0.93206 0.78085,1.63943 1.56169,2.12269 0.78087,0.49094 1.63609,0.6015 2.49235,0.3298 0.8995,-0.23236 1.54224,-0.75892 2.01146,-1.61337 0.43733,-0.85204 0.56306,-1.73799 0.31872,-2.64425 -0.22488,-0.94461 -0.73128,-1.62425 -1.53692,-2.1147 -0.79326,-0.48252 -1.63076,-0.59364 -2.50494,-0.34835 l -1.26776,0.72049 -4.22262,-2.60585 4.23519,-2.5979 z m 25.42299,-28.15931 c 0.86231,0.2301 1.69983,0.12362 2.47978,-0.35097 0.80566,-0.50369 1.30497,-1.19046 1.53692,-2.11536 0.23727,-0.91893 0.14164,-1.81256 -0.31872,-2.65145 -0.48161,-0.83949 -1.14382,-1.36903 -1.99887,-1.62687 -0.88001,-0.24266 -1.7246,-0.13675 -2.49855,0.33785 -0.80033,0.51437 -1.30495,1.21631 -1.54931,2.12791 l -0.0707,1.52905 -4.22882,2.57677 v -5.21565 l 1.18101,-0.78796 c 0.64983,-0.65302 0.97386,-1.49269 0.97386,-2.46306 0,-0.95322 -0.32403,-1.77958 -0.96853,-2.46635 -0.64984,-0.68152 -1.41829,-1.03249 -2.33619,-1.03249 -0.90657,0 -1.69274,0.35097 -2.32379,1.03249 -0.64983,0.68675 -0.96146,1.51312 -0.96146,2.46635 0,0.97046 0.31163,1.80994 0.96146,2.46306 l 1.19873,0.82637 v 5.13106 l -4.24121,-2.5847 -0.0886,-1.4749 c -0.21779,-0.91162 -0.7118,-1.61356 -1.52452,-2.12791 -0.79324,-0.47464 -1.61837,-0.58033 -2.49235,-0.33785 -0.86762,0.23198 -1.54222,0.78738 -1.99887,1.62686 -0.48162,0.85203 -0.58786,1.74511 -0.33642,2.66469 0.21256,0.89831 0.73658,1.59839 1.53691,2.10212 0.74898,0.47464 1.58648,0.58108 2.49855,0.35098 l 1.28016,-0.70269 4.20385,2.57212 -4.22262,2.61047 -1.26245,-0.67363 c -0.86232,-0.25841 -1.737,-0.13305 -2.49855,0.33785 -0.80033,0.4885 -1.32444,1.19588 -1.53692,2.12791 -0.24967,0.89382 -0.12396,1.80525 0.33642,2.63163 0.43735,0.83891 1.10489,1.39414 1.99887,1.65272 0.87471,0.22412 1.70514,0.11805 2.49235,-0.37215 0.80033,-0.46209 1.30497,-1.17471 1.51213,-2.10677 l 0.0886,-1.53429 4.22262,-2.55894 v 5.18263 l -1.16862,0.82636 c -0.64274,0.66895 -0.96146,1.49532 -0.96146,2.45315 0,0.96578 0.31872,1.77884 0.96146,2.46571 0.63742,0.66634 1.40589,1.01805 2.31121,1.01805 0.8747,0 1.67325,-0.35171 2.33601,-1.01805 0.65514,-0.68677 0.96853,-1.5 0.96853,-2.46571 0,-0.9579 -0.32402,-1.78408 -0.96853,-2.45315 l -1.21113,-0.82636 v -5.16939 l 4.25397,2.59726 0.0707,1.48275 c 0.24434,0.93204 0.76137,1.64466 1.54931,2.10677 0.76138,0.49057 1.63076,0.59627 2.49855,0.33843 0.88708,-0.22468 1.53691,-0.76679 1.99887,-1.619 0.46214,-0.82637 0.55599,-1.71213 0.31872,-2.63163 -0.23018,-0.94535 -0.73128,-1.63943 -1.53692,-2.12791 -0.78084,-0.46996 -1.61837,-0.59627 -2.47995,-0.35097 l -1.26779,0.70736 -4.24121,-2.5794 4.24758,-2.61048 z m -50.84601,0 c 0.86762,0.2301 1.69981,0.12362 2.48615,-0.35097 0.81273,-0.50369 1.30497,-1.19046 1.54224,-2.11536 0.24965,-0.91893 0.12396,-1.81256 -0.32404,-2.65145 -0.48161,-0.83949 -1.13675,-1.36903 -2.00507,-1.62687 -0.88001,-0.24266 -1.70512,-0.13675 -2.49235,0.33785 -0.80033,0.51437 -1.31204,1.21631 -1.55462,2.12791 l -0.053,1.52905 -4.21642,2.57677 v -5.21565 l 1.18101,-0.78796 c 0.63034,-0.65302 0.95616,-1.49269 0.95616,-2.46306 0,-0.95322 -0.32405,-1.77958 -0.95616,-2.46635 -0.64981,-0.68152 -1.42359,-1.03249 -2.34858,-1.03249 -0.91188,0 -1.67325,0.35097 -2.32997,1.03249 -0.63036,0.68675 -0.94906,1.51312 -0.94906,2.46635 0,0.97046 0.3187,1.80994 0.94906,2.46306 l 1.22351,0.82637 v 5.1436 l -4.24759,-2.59724 -0.0709,-1.4749 c -0.21781,-0.91162 -0.72421,-1.61356 -1.52985,-2.12791 -0.80563,-0.47464 -1.63606,-0.58033 -2.49235,-0.33785 -0.86761,0.23198 -1.52982,0.78738 -2.011264,1.62686 -0.469218,0.85203 -0.580761,1.74511 -0.350582,2.66469 0.237271,0.89831 0.74898,1.59839 1.549316,2.10212 0.76137,0.47464 1.59887,0.58108 2.49854,0.35098 l 1.27486,-0.70269 4.22881,2.57212 -4.24138,2.61047 -1.26248,-0.67363 c -0.84282,-0.25841 -1.71221,-0.13305 -2.49854,0.33785 -0.800337,0.4885 -1.312046,1.19588 -1.549318,2.12791 -0.230178,0.89382 -0.106282,1.80525 0.350604,2.63163 0.449724,0.83891 1.111954,1.39414 2.011264,1.65272 0.85522,0.22412 1.69272,0.11805 2.49235,-0.37215 0.80564,-0.46209 1.31204,-1.17471 1.52983,-2.10677 l 0.0709,-1.53429 4.20386,-2.55894 v 5.18263 l -1.16152,0.82636 c -0.63744,0.66895 -0.96856,1.49532 -0.96856,2.45315 0,0.96578 0.33112,1.77884 0.96856,2.46571 0.64274,0.66634 1.41828,1.01805 2.3112,1.01805 0.89948,0 1.68564,-0.35171 2.34875,-1.01805 0.64274,-0.68677 0.95615,-1.5 0.95615,-2.46571 0,-0.9579 -0.32404,-1.78408 -0.95615,-2.45315 l -1.21111,-0.82636 v -5.16939 l 4.24758,2.59726 0.0709,1.48275 c 0.24434,0.93204 0.78086,1.64466 1.55461,2.10677 0.78617,0.49057 1.62369,0.59627 2.49218,0.33843 0.89418,-0.22468 1.54932,-0.76679 2.00526,-1.619 0.44973,-0.82637 0.57367,-1.71213 0.32403,-2.63163 -0.23727,-0.94535 -0.73128,-1.63943 -1.54222,-2.12791 -0.78794,-0.46996 -1.61837,-0.59627 -2.49237,-0.35097 l -1.26777,0.70736 -4.22881,-2.5794 4.24758,-2.61048 z m -50.852038,0 c 0.874708,0.2301 1.724604,0.12362 2.511113,-0.35097 0.805657,-0.50369 1.304971,-1.19046 1.524521,-2.11536 0.249667,-0.91893 0.141639,-1.81256 -0.331093,-2.65145 -0.469218,-0.83949 -1.124355,-1.36903 -1.980108,-1.62687 -0.887104,-0.24266 -1.724604,-0.13675 -2.523701,0.33785 -0.773772,0.51437 -1.287249,1.21631 -1.536917,2.12791 l -0.05303,1.52905 -4.241213,2.57677 v -5.21565 l 1.181031,-0.78796 c 0.649813,-0.65302 0.96146,-1.49269 0.96146,-2.46306 0,-0.95322 -0.311647,-1.77958 -0.949063,-2.46635 -0.642741,-0.68152 -1.418282,-1.03249 -2.361147,-1.03249 -0.88178,0 -1.673252,0.35097 -2.311222,1.03249 -0.637438,0.68675 -0.968531,1.51312 -0.968531,2.46635 0,0.97046 0.331093,1.80994 0.968531,2.46306 l 1.223501,0.82637 v 5.13106 l -4.253779,-2.5847 -0.0886,-1.4749 c -0.224875,-0.91162 -0.731281,-1.61356 -1.517449,-2.12791 -0.79324,-0.47464 -1.64846,-0.58033 -2.504916,-0.33785 -0.867616,0.23198 -1.536917,0.78738 -2.005069,1.62686 -0.469218,0.85203 -0.563062,1.74511 -0.336419,2.66469 0.217783,0.89831 0.743656,1.59839 1.549292,2.10212 0.761377,0.47464 1.586501,0.58108 2.504745,0.35098 l 1.267782,-0.70269 4.210052,2.57212 -4.247581,2.61047 -1.230594,-0.67363 c -0.867616,-0.25841 -1.737,-0.13305 -2.504745,0.33785 -0.805636,0.4885 -1.329762,1.19588 -1.549313,2.12791 -0.224875,0.89382 -0.12396,1.80525 0.336418,2.63163 0.456822,0.83891 1.119052,1.39414 2.00507,1.65272 0.85522,0.22412 1.712208,0.11805 2.504937,-0.37215 0.786147,-0.46209 1.292553,-1.17471 1.517428,-2.10677 l 0.0886,-1.53429 4.203833,-2.55891 v 5.18261 l -1.156218,0.82637 c -0.637438,0.66895 -0.956135,1.49532 -0.956135,2.45314 0,0.96578 0.29923,1.77884 0.956135,2.46571 0.642741,0.66635 1.41121,1.01806 2.292436,1.01806 0.918968,0 1.692741,-0.35171 2.361147,-1.01806 0.642762,-0.68675 0.949064,-1.49999 0.949064,-2.46571 0,-0.95789 -0.311626,-1.78407 -0.949064,-2.45314 l -1.211106,-0.82637 v -5.1694 l 4.259978,2.59727 0.05303,1.48276 c 0.262063,0.93204 0.786169,1.64466 1.536917,2.10675 0.786169,0.49057 1.655553,0.59627 2.52351,0.33843 0.867616,-0.22468 1.536916,-0.76679 1.980107,-1.61882 0.481614,-0.82636 0.580782,-1.71211 0.331115,-2.63163 -0.217783,-0.94535 -0.718885,-1.63943 -1.524521,-2.12791 -0.786169,-0.46995 -1.636064,-0.59626 -2.511114,-0.35097 l -1.267782,0.70737 -4.222619,-2.57941 4.253779,-2.61047 z M 175.47,77.258166 c -8.58884,0 -16.29696,4.025783 -21.52512,10.404236 -1.17394,1.435733 -2.24252,2.995216 -3.15458,4.647831 -1.29256,2.359947 -2.29244,4.94464 -2.93571,7.66947 -0.98095,3.767317 -5.42188,2.597277 -4.92841,-0.491125 0.96146,-4.389351 2.6859,-8.466701 5.05961,-12.06874 l -0.0128,-0.01516 c 0.93667,-1.458958 1.98631,-2.840512 3.12942,-4.103117 l 0.006,0.01347 c 4.19129,-4.741047 9.58199,-8.250527 15.66591,-10.008922 h 0.0354 l 1.54931,-0.402489 0.14164,-0.03368 1.46787,-0.284264 0.24966,-0.0544 1.40589,-0.203678 0.34349,-0.03941 1.436,-0.118058 0.29923,-0.02812 0.49931,-0.01179 0.017,-0.99163 c 7e-4,-36.747314 -28.14571,-66.5209017 -62.84459,-66.5209017 -23.8675,0 -44.618147,14.0737077 -55.268345,34.8107707 l 0.318697,0.03941 c 0.687022,0.112499 1.354555,0.244535 2.017487,0.383391 l 1.042886,0.264391 1.037604,0.231415 1.198731,0.343663 0.800311,0.224679 1.324438,0.436222 0.338207,0.104921 c 1.699812,0.601502 3.341712,1.302316 4.959544,2.062463 h 0.01278 c 11.861858,5.770939 21.200376,16.374155 25.728977,29.422567 h 0.01704 c 0.55599,1.639984 1.042907,3.331031 1.435981,5.037857 0.249667,0.979083 0.462146,1.975866 0.630345,2.979992 l 0.0886,0.444288 c 0.141638,0.826367 0.269134,1.665836 0.362978,2.478931 l 0.0886,0.774832 c 0.0886,0.77202 0.159317,1.544241 0.212564,2.318955 l 0.05304,0.779329 c 0.07093,1.004749 0.0886,2.037353 0.0886,3.067936 v 0.635235 l -0.03536,1.526424 c -0.03536,0.653036 -0.07093,1.329296 -0.12396,1.995687 -0.442658,3.873083 -5.471807,2.909932 -4.847106,-0.475394 0.0886,-1.216309 0.141638,-2.453147 0.141638,-3.682019 0,-3.318483 -0.311626,-6.530497 -0.943739,-9.657259 -0.362581,-1.831093 -0.824706,-3.6099 -1.380696,-5.34251 C 84.752836,57.321802 68.224807,44.008291 48.760878,44.008291 24.331014,44.008308 4.5173967,64.963534 4.5173967,90.823706 c 0,25.852934 19.8136173,46.828624 44.2433103,46.828624 h 21.3316 0.03536 87.955783 0.053 17.33384 c 15.77214,0 28.54624,-13.5257 28.54624,-30.20921 0,-16.678914 -12.7741,-30.184112 -28.54624,-30.184112 z m -1.25539,-5.130365 v 0 l 1.25539,-0.05255 z"
       style="fill:#ffffff;fill-opacity:1;fill-rule:nonzero;stroke:none;stroke-width:0.64258718"
       id="path4756"
       inkscape:connector-curvature="0" />
  </g>
</svg>
