<?xml version="1.0" encoding="UTF-8" standalone="no"?>
<!-- Created with Inkscape (http://www.inkscape.org/) -->

<svg
   xmlns:dc="http://purl.org/dc/elements/1.1/"
   xmlns:cc="http://creativecommons.org/ns#"
   xmlns:rdf="http://www.w3.org/1999/02/22-rdf-syntax-ns#"
   xmlns:svg="http://www.w3.org/2000/svg"
   xmlns="http://www.w3.org/2000/svg"
   xmlns:sodipodi="http://sodipodi.sourceforge.net/DTD/sodipodi-0.dtd"
   xmlns:inkscape="http://www.inkscape.org/namespaces/inkscape"
   width="201.94533mm"
   height="209.52304mm"
   viewBox="0 0 201.94533 209.52304"
   version="1.1"
   id="svg4840"
   sodipodi:docname="cloud.svg"
   inkscape:version="0.92.2 2405546, 2018-03-11">
  <defs
     id="defs4834" />
  <sodipodi:namedview
     id="base"
     pagecolor="#ffffff"
     bordercolor="#666666"
     borderopacity="1.0"
     inkscape:pageopacity="0.0"
     inkscape:pageshadow="2"
     inkscape:zoom="0.175"
     inkscape:cx="396.50993"
     inkscape:cy="955.50542"
     inkscape:document-units="mm"
     inkscape:current-layer="layer1"
     showgrid="false"
     inkscape:window-width="679"
     inkscape:window-height="694"
     inkscape:window-x="683"
     inkscape:window-y="51"
     inkscape:window-maximized="0"
     inkscape:pagecheckerboard="true" />
  <metadata
     id="metadata4837">
    <rdf:RDF>
      <cc:Work
         rdf:about="">
        <dc:format>image/svg+xml</dc:format>
        <dc:type
           rdf:resource="http://purl.org/dc/dcmitype/StillImage" />
        <dc:title></dc:title>
      </cc:Work>
    </rdf:RDF>
  </metadata>
  <g
     inkscape:label="Layer 1"
     inkscape:groupmode="layer"
     id="layer1"
     transform="translate(-4.1038095,-4.0065595)">
    <path
       d="m 174.81059,113.49532 c -8.40042,0 -15.90203,3.65903 -21.00682,9.3044 -1.15664,1.30063 -2.18096,2.67172 -3.06176,4.15278 -1.27042,2.09088 -2.2409,4.40237 -2.88206,6.84178 -0.96471,3.3571 -5.26666,2.32318 -4.78736,-0.43628 0.94603,-3.94946 2.62441,-7.53869 4.91321,-10.77955 l -0.0122,-0.0494 c 0.93415,-1.24794 1.95931,-2.48007 3.04988,-3.64158 l 0.017,0.0494 c 4.06858,-4.23987 9.33524,-7.41109 15.27311,-8.93282 h 0.0339 l 1.5048,-0.37208 0.13588,-0.0329 1.44366,-0.2733 0.22759,-0.0329 1.38933,-0.19756 0.31759,-0.0165 1.42668,-0.11525 h 0.25816 c 0.56897,-0.0329 1.15663,-0.0988 1.74939,-0.0988 l -1.23477,0.0494 v -0.87751 c 0,-32.791913 -27.39988,-59.392523 -61.23493,-59.392523 -23.247687,0 -43.469589,12.568498 -53.847168,31.101811 l 0.305546,0.02304 c 0.658989,0.08725 1.31815,0.249752 1.953277,0.342609 l 1.042494,0.226539 1.000543,0.226539 1.186352,0.284656 0.754951,0.191635 1.300148,0.423938 0.317604,0.08725 c 1.665648,0.540169 3.265465,1.132532 4.835288,1.841123 11.563931,5.122619 20.689258,14.612899 25.069163,26.263703 h 0.03057 c 0.563025,1.45209 1.030442,2.97382 1.419888,4.50131 0.221646,0.88245 0.431398,1.74235 0.605149,2.64257 l 0.07137,0.41324 c 0.149465,0.75568 0.257646,1.45209 0.365503,2.19542 l 0.101895,0.66184 c 0.07127,0.70793 0.13757,1.40599 0.185818,2.09664 l 0.05436,0.69641 c 0.05436,0.89397 0.101895,1.82367 0.101895,2.74728 l -0.02379,0.57458 -0.04758,1.37142 c -0.01873,0.5861 -0.07815,1.15081 -0.09516,1.73065 -0.449407,3.46741 -5.338564,2.61953 -4.751386,-0.40006 0.08322,-1.08001 0.144373,-2.16052 0.144373,-3.2756 0,-2.97382 -0.317608,-5.83124 -0.904758,-8.63072 -0.342859,-1.63151 -0.816208,-3.18848 -1.349514,-4.76816 C 86.381575,95.695666 70.281944,83.789349 51.306313,83.789349 c -23.804923,0 -43.0981085,18.719121 -43.0981085,41.823321 0,23.06945 19.2931855,41.78282 43.0981085,41.78282 h 20.791114 0.03056 85.710963 0.0509 16.91447 c 15.35074,0 27.78933,-12.09813 27.78933,-26.97825 0,-14.8859 -12.43859,-26.93166 -27.78933,-26.93166 z"
       style="fill:#ffffff;fill-opacity:1;fill-rule:nonzero;stroke:none;stroke-width:0.58991206"
       id="path4782"
       inkscape:connector-curvature="0"
       sodipodi:nodetypes="ccccccccccccccssccccccccccccccccccccccccsccsssccccsssccccsscc" />
  </g>
</svg>
