<?xml version="1.0" encoding="UTF-8" standalone="no"?>
<!-- Created with Inkscape (http://www.inkscape.org/) -->

<svg
   xmlns:dc="http://purl.org/dc/elements/1.1/"
   xmlns:cc="http://creativecommons.org/ns#"
   xmlns:rdf="http://www.w3.org/1999/02/22-rdf-syntax-ns#"
   xmlns:svg="http://www.w3.org/2000/svg"
   xmlns="http://www.w3.org/2000/svg"
   xmlns:sodipodi="http://sodipodi.sourceforge.net/DTD/sodipodi-0.dtd"
   xmlns:inkscape="http://www.inkscape.org/namespaces/inkscape"
   width="201.94533mm"
   height="209.52304mm"
   viewBox="0 0 201.94533 209.52304"
   version="1.1"
   id="svg4840"
   sodipodi:docname="partsun.svg"
   inkscape:version="0.92.2 2405546, 2018-03-11">
  <defs
     id="defs4834" />
  <sodipodi:namedview
     id="base"
     pagecolor="#ffffff"
     bordercolor="#666666"
     borderopacity="1.0"
     inkscape:pageopacity="0.0"
     inkscape:pageshadow="2"
     inkscape:zoom="0.35"
     inkscape:cx="305.10387"
     inkscape:cy="358.80703"
     inkscape:document-units="mm"
     inkscape:current-layer="layer1"
     showgrid="false"
     inkscape:window-width="679"
     inkscape:window-height="694"
     inkscape:window-x="683"
     inkscape:window-y="51"
     inkscape:window-maximized="0"
     inkscape:pagecheckerboard="true" />
  <metadata
     id="metadata4837">
    <rdf:RDF>
      <cc:Work
         rdf:about="">
        <dc:format>image/svg+xml</dc:format>
        <dc:type
           rdf:resource="http://purl.org/dc/dcmitype/StillImage" />
        <dc:title></dc:title>
      </cc:Work>
    </rdf:RDF>
  </metadata>
  <g
     inkscape:label="Layer 1"
     inkscape:groupmode="layer"
     id="layer1"
     transform="translate(-4.1038095,-4.0065595)">
    <path
       d="m 166.71603,129.99345 c -4.26228,-4.01261 -9.76152,-6.42981 -15.78336,-6.42981 -6.18004,0 -11.79915,2.57723 -16.11415,6.79252 -0.82943,0.80619 -1.63011,1.65955 -2.36366,2.59325 -1.00204,1.3023 -1.92258,2.70532 -2.68969,4.18868 -1.11715,2.15584 -1.97053,4.47154 -2.53147,6.92607 -0.85336,3.40429 -4.65061,2.34778 -4.22872,-0.43711 0.82945,-3.96453 2.31574,-7.65164 4.33419,-10.9012 l -0.019,-0.0115 c 0.81978,-1.3129 1.73078,-2.54516 2.69448,-3.70846 l 0.0104,0.005 1.28011,-1.32347 c 3.38008,-3.56444 7.52729,-6.30184 12.16832,-7.68371 l 0.019,-0.0115 c 0.44115,-0.13616 0.88694,-0.25562 1.33759,-0.35696 l 0.11963,-0.0302 1.26094,-0.26168 0.21568,-0.0453 1.22261,-0.17548 0.2733,-0.0303 c 0.40269,-0.0604 0.81502,-0.0909 1.25128,-0.1211 l 0.24449,-0.0302 0.44592,-0.005 0.005,-0.89694 c 0,-17.84857 -7.02867,-33.840375 -18.15181,-44.837606 -9.52657,-9.40725 -22.03529,-15.18077 -35.781014,-15.18077 -20.462738,0 -38.27413,12.70489 -47.412369,31.412604 l 0.268549,0.04539 c 0.58494,0.09074 1.165122,0.207217 1.7356,0.331247 l 0.906085,0.229907 0.882164,0.229906 1.040359,0.29797 0.661589,0.219319 1.145822,0.378127 0.292469,0.12105 c 1.452712,0.527884 2.867082,1.157105 4.257466,1.851514 h 0.0047 c 10.178625,5.207833 18.194952,14.791122 22.073667,26.556882 l 0.01008,-0.005 c 0.488989,1.47775 0.906087,3.00422 1.260925,4.55152 h -0.01008 c 0.201413,0.88031 0.383529,1.77149 0.5322,2.66798 l 0.08151,0.41141 c 0.115491,0.74115 0.210919,1.49893 0.306873,2.24643 l 0.09643,0.69426 c 0.06659,0.6882 0.115491,1.39306 0.162955,2.09169 l 0.05304,0.68819 c 0.04752,0.92267 0.07198,1.84092 0.07198,2.78007 l -0.01008,0.57628 -0.02859,1.37187 c -0.02446,0.59293 -0.06659,1.20095 -0.110099,1.81414 -0.393172,3.48443 -4.693775,2.60929 -4.156797,-0.43712 0.06659,-1.11021 0.125021,-2.21437 0.125021,-3.32427 0,-3.00404 -0.292464,-5.90146 -0.815022,-8.70814 -0.315977,-1.65926 -0.713914,-3.26012 -1.183742,-4.83952 C 73.106445,105.57911 58.924457,93.562571 42.210978,93.562571 21.249859,93.562408 4.2487222,112.48884 4.2487222,135.82281 c 0,23.33398 17.0011368,42.24436 37.9625008,42.24436 h 18.30522 0.02447 75.479107 0.0475 14.8676 c 13.52037,0 24.48528,-12.19787 24.48528,-27.2345 0,-8.36662 -3.38965,-15.83162 -8.70193,-20.82059 z m 19.24014,-6.55263 c -0.93489,-0.69879 -2.21983,-0.41595 -2.8479,0.64587 -0.63767,1.05119 -0.37878,2.49191 0.56577,3.19084 l 8.75467,6.4938 c 0.95896,0.69424 2.23902,0.43259 2.87669,-0.63982 0.63291,-1.05725 0.37876,-2.48116 -0.58019,-3.19614 z m 6.40539,-41.886795 10.18821,-2.913456 c 1.11226,-0.314607 1.77875,-1.558068 1.50547,-2.795932 -0.30687,-1.222133 -1.41436,-1.969027 -2.53148,-1.648822 l -10.19299,2.908012 c -1.10274,0.31461 -1.76916,1.574103 -1.4911,2.796085 0.29248,1.232721 1.41437,1.979613 2.52189,1.654113 z m -9.59371,-18.665057 6.12254,-9.513883 c 0.66158,-1.051216 0.45542,-2.497205 -0.47458,-3.222924 -0.9254,-0.736607 -2.22465,-0.496114 -2.88627,0.533927 l -6.12732,9.524623 c -0.66647,1.045165 -0.44115,2.465139 0.48425,3.212185 0.92537,0.736607 2.21024,0.5067 2.88147,-0.533928 z m 21.30657,40.728952 -10.38,-1.96359 c -1.1219,-0.20872 -2.20064,0.63526 -2.38284,1.88901 -0.19666,1.25844 0.57053,2.43852 1.69723,2.65724 l 10.37041,1.94755 c 1.12189,0.22385 2.19107,-0.61863 2.39246,-1.87283 0.18223,-1.24332 -0.57531,-2.43852 -1.69726,-2.65738 z M 138.29929,55.328079 c 0.32604,1.226669 1.46711,1.926218 2.56503,1.56336 1.09799,-0.341833 1.72602,-1.622049 1.41439,-2.854769 l -2.96779,-11.231978 c -0.31638,-1.226671 -1.4719,-1.915634 -2.56983,-1.563515 -1.08833,0.352424 -1.726,1.638234 -1.39519,2.849476 z m 22.68258,-0.36755 c 1.1219,0.202682 2.19585,-0.639805 2.37803,-1.88886 l 1.75958,-11.54689 c 0.19176,-1.253897 -0.57053,-2.449257 -1.68285,-2.651939 -1.12666,-0.219317 -2.20546,0.635269 -2.38286,1.872829 l -1.76436,11.557629 c -0.2014,1.253896 0.56103,2.427779 1.69246,2.657231 z m -21.71889,11.152117 c 5.98349,-3.761841 13.11762,-5.362563 20.42917,-3.980554 16.89085,3.190857 28.24892,21.012824 25.38186,39.811148 -1.29452,8.50546 -5.31228,15.75159 -10.86903,20.84736 -4.38214,-4.44478 -9.98685,-7.40087 -16.17171,-8.14248 l 0.0286,-1.05122 c 0,-18.77168 -7.27799,-35.659813 -18.79907,-47.484254"
       style="fill:#ffffff;fill-opacity:1;fill-rule:nonzero;stroke:none;stroke-width:0.50579423"
       id="path4790"
       inkscape:connector-curvature="0" />
  </g>
</svg>
