<?xml version="1.0" encoding="UTF-8" standalone="no"?>
<!-- Created with Inkscape (http://www.inkscape.org/) -->

<svg
   xmlns:dc="http://purl.org/dc/elements/1.1/"
   xmlns:cc="http://creativecommons.org/ns#"
   xmlns:rdf="http://www.w3.org/1999/02/22-rdf-syntax-ns#"
   xmlns:svg="http://www.w3.org/2000/svg"
   xmlns="http://www.w3.org/2000/svg"
   xmlns:sodipodi="http://sodipodi.sourceforge.net/DTD/sodipodi-0.dtd"
   xmlns:inkscape="http://www.inkscape.org/namespaces/inkscape"
   width="201.94533mm"
   height="209.52304mm"
   viewBox="0 0 201.94533 209.52304"
   version="1.1"
   id="svg4840"
   sodipodi:docname="sun.svg"
   inkscape:version="0.92.2 2405546, 2018-03-11">
  <defs
     id="defs4834" />
  <sodipodi:namedview
     id="base"
     pagecolor="#ffffff"
     bordercolor="#666666"
     borderopacity="1.0"
     inkscape:pageopacity="0.0"
     inkscape:pageshadow="2"
     inkscape:zoom="0.35"
     inkscape:cx="217.64662"
     inkscape:cy="358.80703"
     inkscape:document-units="mm"
     inkscape:current-layer="layer1"
     showgrid="false"
     inkscape:window-width="679"
     inkscape:window-height="725"
     inkscape:window-x="683"
     inkscape:window-y="20"
     inkscape:window-maximized="0" />
  <metadata
     id="metadata4837">
    <rdf:RDF>
      <cc:Work
         rdf:about="">
        <dc:format>image/svg+xml</dc:format>
        <dc:type
           rdf:resource="http://purl.org/dc/dcmitype/StillImage" />
        <dc:title></dc:title>
      </cc:Work>
    </rdf:RDF>
  </metadata>
  <g
     inkscape:label="Layer 1"
     inkscape:groupmode="layer"
     id="layer1"
     transform="translate(-4.1038095,-4.0065595)">
    <path
       d="m 148.67106,46.285443 c 0.80302,0.636661 1.93495,0.484607 2.544,-0.338137 L 164.22598,28.26544 c 0.60365,-0.833926 0.46354,-2.022874 -0.32878,-2.653964 l -1.43905,-1.160724 c -0.80302,-0.636666 -1.94572,-0.484607 -2.54939,0.343729 l -13.00555,17.676228 c -0.60899,0.833933 -0.46888,2.022867 0.32879,2.653959 z m 26.0165,31.796923 19.7589,-8.407063 c 0.92739,-0.394365 1.38574,-1.510199 1.01294,-2.468005 l -0.69057,-1.769307 c -0.38196,-0.974813 -1.4392,-1.436889 -2.37146,-1.042374 l -19.75356,8.395791 c -0.93243,0.394364 -1.38511,1.50445 -0.99705,2.479278 l 0.67377,1.758034 c 0.37737,0.969214 1.43307,1.43114 2.36611,1.053706 z m 27.73576,33.926864 -21.31115,-1.08757 c -1.00224,-0.0512 -1.84865,0.77195 -1.90793,1.80876 l -0.0764,1.89327 c -0.061,1.05931 0.71655,1.93273 1.7301,1.9947 l 21.30047,1.08183 c 0.99766,0.0512 1.8433,-0.76079 1.88638,-1.8144 l 0.0916,-1.88763 c 0.061,-1.04238 -0.72267,-1.93274 -1.71391,-1.98909 z m -31.89129,38.0515 c -0.83006,-0.60856 -1.95649,-0.39436 -2.52241,0.47326 l -1.02945,1.5495 c -0.57674,0.87337 -0.36653,2.0623 0.4582,2.65396 l 17.5491,12.68384 c 0.83572,0.58045 1.95117,0.36625 2.52241,-0.49595 l 1.02976,-1.56083 c 0.5775,-0.86779 0.36666,-2.04541 -0.44765,-2.64271 z m -36.12772,31.18275 -1.68163,0.70997 c -0.92171,0.38878 -1.38511,1.49328 -1.00253,2.47365 l 7.99304,20.67954 c 0.37722,0.96922 1.4337,1.43131 2.36073,1.05371 l 1.68161,-0.71557 c 0.93243,-0.4001 1.38511,-1.50445 1.00255,-2.46802 l -7.98227,-20.67955 c -0.38272,-0.96921 -1.44439,-1.45382 -2.3715,-1.0537 z m -41.479792,5.39244 -1.805559,-0.29292 c -0.980868,-0.15814 -1.907994,0.55775 -2.064293,1.60027 l -3.206925,22.04315 c -0.151302,1.0312 0.51747,2.00599 1.514523,2.16375 l 1.789391,0.28734 c 1.002552,0.15174 1.918767,-0.55776 2.064293,-1.58894 l 3.228488,-22.04317 c 0.151302,-1.04812 -0.533672,-2.00597 -1.519866,-2.16937 z M 49.90326,161.9388 c -0.608995,-0.83393 -1.740905,-1.00868 -2.543981,-0.37185 l -17.112552,13.33183 c -0.786977,0.61973 -0.964822,1.81438 -0.361171,2.64833 l 1.083356,1.52698 c 0.603652,0.83951 1.740906,1.01984 2.538586,0.39436 l 17.101797,-13.35439 c 0.803024,-0.61415 0.970165,-1.80313 0.361015,-2.64832 z m -19.726616,-43.81586 -0.188686,-1.89327 c -0.102367,-1.04812 -0.981007,-1.80877 -1.978043,-1.69607 l -21.2357476,2.25392 c -0.9917033,0.11333 -1.724734,1.04235 -1.6115533,2.09048 l 0.1724841,1.882 c 0.119174,1.03678 1.0025504,1.80877 1.9942226,1.69606 L 28.548913,120.1909 c 1.002552,-0.10069 1.735492,-1.03119 1.627696,-2.06796 z m 4.381909,-43.748248 c 0.851596,0.546584 1.96727,0.259242 2.490066,-0.625479 l 0.932434,-1.634094 c 0.528156,-0.895888 0.253306,-2.067936 -0.59829,-2.603248 L 19.149117,57.943718 c -0.856951,-0.546584 -1.983437,-0.264826 -2.495469,0.625478 l -0.948619,1.622822 c -0.511971,0.895888 -0.242464,2.067951 0.608985,2.620164 z m 28.36642,-32.529435 c 0.47424,0.924171 1.568438,1.27349 2.452352,0.783293 l 1.606169,-0.890309 c 0.883983,-0.495787 1.22347,-1.645346 0.749229,-2.558177 L 57.718511,19.475324 c -0.463537,-0.924171 -1.563043,-1.27349 -2.446957,-0.788883 l -1.606169,0.890308 c -0.883983,0.501538 -1.228813,1.650985 -0.754573,2.575093 z M 104.77666,31.296996 h 1.82174 c 0.99706,0 1.80558,-0.839517 1.80558,-1.898911 V 7.101353 c 0,-1.048117 -0.80851,-1.89891 -1.80558,-1.89891 h -1.82174 c -0.99705,0 -1.80558,0.8508562 -1.80558,1.89891 v 22.296732 c 0,1.059298 0.80853,1.898911 1.80558,1.898911 z m 63.56174,78.092084 c 0,36.93017 -28.61976,66.84509 -63.92825,66.84509 -35.330027,0 -63.949804,-29.91492 -63.949804,-66.84509 0,-36.90765 28.619777,-66.839483 63.949804,-66.839483 35.30849,0 63.92825,29.931833 63.92825,66.839483"
       style="fill:#ffffff;fill-opacity:1;fill-rule:nonzero;stroke:none;stroke-width:0.55109096"
       id="path4794"
       inkscape:connector-curvature="0" />
  </g>
</svg>
